STARTFONT 2.1
FONT -Monotype-Arial Narrow-Regular-R-Normal--25-180-100-100-P-93-iso8859-9
SIZE 18 100 100
FONTBOUNDINGBOX 26 29 -5 -6

STARTPROPERTIES 24
FOUNDRY "Monotype"
FAMILY_NAME "Arial Narrow"
WEIGHT_NAME "Regular"
SLANT "R"
SETWIDTH_NAME "Normal"
ADD_STYLE_NAME ""
PIXEL_SIZE 25
POINT_SIZE 180
RESOLUTION_X 100
RESOLUTION_Y 100
SPACING "P"
AVERAGE_WIDTH 93
CHARSET_REGISTRY "iso8859"
CHARSET_ENCODING "9"
FACE_NAME "Arial Narrow ISO Latin5"
_DEC_DEVICE_FONTNAMES "PS=arialnarrow-lat5"
COPYRIGHT "Copyright (c) 1993 Monotype Typography Ltd."
CAP_HEIGHT 20
X_HEIGHT 15
WEIGHT 10
QUAD_WIDTH 13
DEFAULT_CHAR 160
FONT_DESCENT 6
FONT_ASCENT 23
ENDPROPERTIES

CHARS 191

STARTCHAR space
ENCODING 32
SWIDTH 228 0
DWIDTH 6 0
BBX 0 0 0 0
BITMAP
ENDCHAR

STARTCHAR exclam
ENCODING 33
SWIDTH 228 0
DWIDTH 6 0
BBX 2 18 2 0
BITMAP
C0
C0
C0
C0
C0
C0
C0
C0
C0
C0
C0
C0
C0
C0
00
C0
C0
C0
ENDCHAR

STARTCHAR quotedbl
ENCODING 34
SWIDTH 291 0
DWIDTH 7 0
BBX 5 7 1 11
BITMAP
D8
D8
D8
D8
D8
D8
D8
ENDCHAR

STARTCHAR numbersign
ENCODING 35
SWIDTH 456 0
DWIDTH 11 0
BBX 11 18 0 0
BITMAP
0C40
0840
08C0
08C0
18C0
FFE0
FFE0
1080
1180
1180
3100
FFE0
FFE0
2100
2300
2300
6300
6200
ENDCHAR

STARTCHAR dollar
ENCODING 36
SWIDTH 456 0
DWIDTH 11 0
BBX 9 22 1 -2
BITMAP
0800
3C00
7F00
6B00
C900
C980
C800
C800
6800
7C00
1E00
0B00
0980
0980
C980
C980
C980
6B00
7F00
1C00
0800
0800
ENDCHAR

STARTCHAR percent
ENCODING 37
SWIDTH 729 0
DWIDTH 18 0
BBX 17 19 1 -1
BITMAP
381800
7C1000
443000
C62000
C66000
C66000
C64000
6CC000
7C8000
118400
011F00
011B00
033180
023180
063180
043180
0C1100
0C1F00
180E00
ENDCHAR

STARTCHAR ampersand
ENCODING 38
SWIDTH 547 0
DWIDTH 14 0
BBX 12 18 1 0
BITMAP
0E00
1F00
3180
3180
3180
3980
1F00
1E00
3E00
7600
6760
C3E0
C1E0
C0C0
C1E0
63E0
7F30
1E30
ENDCHAR

STARTCHAR quoteright
ENCODING 39
SWIDTH 182 0
DWIDTH 5 0
BBX 2 6 1 12
BITMAP
C0
C0
C0
40
C0
80
ENDCHAR

STARTCHAR parenleft
ENCODING 40
SWIDTH 273 0
DWIDTH 7 0
BBX 5 23 1 -5
BITMAP
18
10
30
20
60
60
60
C0
C0
C0
C0
C0
C0
C0
C0
40
60
60
60
30
30
10
08
ENDCHAR

STARTCHAR parenright
ENCODING 41
SWIDTH 273 0
DWIDTH 7 0
BBX 5 23 1 -5
BITMAP
C0
40
60
20
30
30
10
18
18
18
18
18
18
18
18
18
30
30
30
20
60
40
C0
ENDCHAR

STARTCHAR asterisk
ENCODING 42
SWIDTH 319 0
DWIDTH 8 0
BBX 6 8 1 10
BITMAP
30
30
B4
FC
30
68
4C
48
ENDCHAR

STARTCHAR plus
ENCODING 43
SWIDTH 479 0
DWIDTH 12 0
BBX 10 12 1 3
BITMAP
0C00
0C00
0C00
0C00
0C00
FFC0
FFC0
0C00
0C00
0C00
0C00
0C00
ENDCHAR

STARTCHAR comma
ENCODING 44
SWIDTH 228 0
DWIDTH 6 0
BBX 2 7 2 -4
BITMAP
C0
C0
C0
40
40
C0
80
ENDCHAR

STARTCHAR minus
ENCODING 45
SWIDTH 479 0
DWIDTH 12 0
BBX 10 2 1 8
BITMAP
FFC0
FFC0
ENDCHAR

STARTCHAR period
ENCODING 46
SWIDTH 228 0
DWIDTH 6 0
BBX 2 3 2 0
BITMAP
C0
C0
C0
ENDCHAR

STARTCHAR slash
ENCODING 47
SWIDTH 228 0
DWIDTH 6 0
BBX 6 19 0 -1
BITMAP
0C
08
08
18
18
10
10
10
30
30
20
20
60
60
40
40
40
C0
C0
ENDCHAR

STARTCHAR zero
ENCODING 48
SWIDTH 456 0
DWIDTH 11 0
BBX 10 18 1 0
BITMAP
1E00
3F00
6180
6180
40C0
C0C0
C0C0
C0C0
C0C0
C0C0
C0C0
C0C0
C0C0
40C0
6180
7380
3F00
1E00
ENDCHAR

STARTCHAR one
ENCODING 49
SWIDTH 456 0
DWIDTH 11 0
BBX 5 18 3 0
BITMAP
18
18
38
78
D8
98
18
18
18
18
18
18
18
18
18
18
18
18
ENDCHAR

STARTCHAR two
ENCODING 50
SWIDTH 456 0
DWIDTH 11 0
BBX 10 18 0 0
BITMAP
1E00
3F80
7180
60C0
60C0
00C0
00C0
0180
0180
0300
0700
0E00
1C00
3800
7000
6000
FFC0
FFC0
ENDCHAR

STARTCHAR three
ENCODING 51
SWIDTH 456 0
DWIDTH 11 0
BBX 10 18 1 0
BITMAP
1E00
7F00
6380
C180
C180
0180
0300
0E00
0F00
0180
00C0
00C0
00C0
C0C0
61C0
7180
3F00
1E00
ENDCHAR

STARTCHAR four
ENCODING 52
SWIDTH 456 0
DWIDTH 11 0
BBX 10 18 1 0
BITMAP
0300
0300
0700
0700
0F00
1B00
1B00
3300
2300
6300
4300
C300
FFC0
FFC0
0300
0300
0300
0300
ENDCHAR

STARTCHAR five
ENCODING 53
SWIDTH 456 0
DWIDTH 11 0
BBX 10 18 1 0
BITMAP
3F80
3F80
2000
6000
6000
6000
7E00
7F80
6180
40C0
00C0
00C0
00C0
C0C0
6180
6180
3F00
1E00
ENDCHAR

STARTCHAR six
ENCODING 54
SWIDTH 456 0
DWIDTH 11 0
BBX 10 18 1 0
BITMAP
1E00
3F80
7180
60C0
C000
C000
CE00
DF80
E180
E0C0
C0C0
C0C0
C0C0
C0C0
61C0
7180
3F00
0E00
ENDCHAR

STARTCHAR seven
ENCODING 55
SWIDTH 456 0
DWIDTH 11 0
BBX 10 18 1 0
BITMAP
FFC0
FFC0
0180
0300
0300
0600
0600
0C00
0C00
0C00
1800
1800
1800
1800
3000
3000
3000
3000
ENDCHAR

STARTCHAR eight
ENCODING 56
SWIDTH 456 0
DWIDTH 11 0
BBX 10 18 1 0
BITMAP
1E00
3F00
7380
6180
6180
6180
7300
1E00
3F00
6180
C080
C0C0
C0C0
C0C0
C0C0
6180
3F00
1E00
ENDCHAR

STARTCHAR nine
ENCODING 57
SWIDTH 456 0
DWIDTH 11 0
BBX 10 18 1 0
BITMAP
1E00
3F00
6180
E180
C0C0
C0C0
C0C0
C0C0
E1C0
61C0
3FC0
1CC0
00C0
40C0
C180
6380
7F00
1C00
ENDCHAR

STARTCHAR colon
ENCODING 58
SWIDTH 228 0
DWIDTH 6 0
BBX 2 13 2 0
BITMAP
C0
C0
C0
00
00
00
00
00
00
00
C0
C0
C0
ENDCHAR

STARTCHAR semicolon
ENCODING 59
SWIDTH 228 0
DWIDTH 6 0
BBX 2 17 2 -4
BITMAP
C0
C0
C0
00
00
00
00
00
00
00
C0
C0
C0
40
40
C0
80
ENDCHAR

STARTCHAR less
ENCODING 60
SWIDTH 479 0
DWIDTH 12 0
BBX 10 12 1 3
BITMAP
0040
01C0
07C0
1E00
7800
C000
E000
7800
1E00
0780
01C0
00C0
ENDCHAR

STARTCHAR equal
ENCODING 61
SWIDTH 479 0
DWIDTH 12 0
BBX 10 7 1 5
BITMAP
FFC0
FFC0
0000
0000
0000
FFC0
FFC0
ENDCHAR

STARTCHAR greater
ENCODING 62
SWIDTH 479 0
DWIDTH 12 0
BBX 10 12 1 3
BITMAP
8000
E000
7800
1E00
0780
00C0
01C0
0780
1E00
7800
F000
C000
ENDCHAR

STARTCHAR question
ENCODING 63
SWIDTH 456 0
DWIDTH 11 0
BBX 10 18 1 0
BITMAP
1E00
3F80
6180
60C0
C0C0
00C0
00C0
0180
0300
0700
0600
0C00
0C00
0C00
0000
0C00
0C00
0C00
ENDCHAR

STARTCHAR at
ENCODING 64
SWIDTH 832 0
DWIDTH 21 0
BBX 19 23 1 -5
BITMAP
01F000
07FE00
0E0700
180380
300180
60CCC0
63FCC0
431C40
C61C40
C41840
8C1840
8C1840
8C18C0
8C1880
CC3980
C67B00
C7DE00
639C00
7000E0
3801C0
1E0380
07FE00
01F800
ENDCHAR

STARTCHAR A
ENCODING 65
SWIDTH 547 0
DWIDTH 14 0
BBX 14 18 0 0
BITMAP
0300
0700
0780
0580
0D80
0CC0
0CC0
18C0
18E0
1860
3060
3FF0
3FF0
6030
6038
6018
C018
C01C
ENDCHAR

STARTCHAR B
ENCODING 66
SWIDTH 547 0
DWIDTH 14 0
BBX 11 18 2 0
BITMAP
FF00
FF80
C1C0
C0C0
C0C0
C0C0
C0C0
C180
FF00
FF80
C0C0
C060
C060
C060
C060
C0C0
FFC0
FF80
ENDCHAR

STARTCHAR C
ENCODING 67
SWIDTH 592 0
DWIDTH 15 0
BBX 13 18 1 0
BITMAP
0F80
1FE0
3870
7030
6038
C010
C000
C000
C000
C000
C000
C000
E018
6038
7030
3870
1FE0
0F80
ENDCHAR

STARTCHAR D
ENCODING 68
SWIDTH 592 0
DWIDTH 15 0
BBX 12 18 2 0
BITMAP
FF00
FFC0
C0E0
C060
C060
C030
C030
C030
C030
C030
C030
C030
C030
C060
C060
C1C0
FFC0
FF00
ENDCHAR

STARTCHAR E
ENCODING 69
SWIDTH 547 0
DWIDTH 14 0
BBX 11 18 2 0
BITMAP
FFE0
FFE0
C000
C000
C000
C000
C000
C000
FFC0
FFC0
C000
C000
C000
C000
C000
C000
FFE0
FFE0
ENDCHAR

STARTCHAR F
ENCODING 70
SWIDTH 501 0
DWIDTH 13 0
BBX 10 18 2 0
BITMAP
FFC0
FFC0
C000
C000
C000
C000
C000
C000
FF80
FF80
C000
C000
C000
C000
C000
C000
C000
C000
ENDCHAR

STARTCHAR G
ENCODING 71
SWIDTH 638 0
DWIDTH 16 0
BBX 14 18 1 0
BITMAP
07C0
1FF0
3838
7018
600C
E008
C000
C000
C000
C0FC
C0FC
C00C
E00C
600C
700C
383C
1FF8
07E0
ENDCHAR

STARTCHAR H
ENCODING 72
SWIDTH 592 0
DWIDTH 15 0
BBX 12 18 1 0
BITMAP
C030
C030
C030
C030
C030
C030
C030
FFF0
FFF0
C030
C030
C030
C030
C030
C030
C030
C030
C030
ENDCHAR

STARTCHAR I
ENCODING 73
SWIDTH 228 0
DWIDTH 6 0
BBX 2 18 2 0
BITMAP
C0
C0
C0
C0
C0
C0
C0
C0
C0
C0
C0
C0
C0
C0
C0
C0
C0
C0
ENDCHAR

STARTCHAR J
ENCODING 74
SWIDTH 410 0
DWIDTH 10 0
BBX 8 18 1 0
BITMAP
03
03
03
03
03
03
03
03
03
03
03
03
43
C3
C3
E7
7E
3C
ENDCHAR

STARTCHAR K
ENCODING 75
SWIDTH 547 0
DWIDTH 14 0
BBX 12 18 1 0
BITMAP
C070
C0E0
C1C0
C380
C300
C600
CC00
DC00
DE00
F600
E700
C300
C180
C1C0
C0C0
C0E0
C060
C070
ENDCHAR

STARTCHAR L
ENCODING 76
SWIDTH 456 0
DWIDTH 11 0
BBX 9 18 2 0
BITMAP
C000
C000
C000
C000
C000
C000
C000
C000
C000
C000
C000
C000
C000
C000
C000
C000
FF80
FF80
ENDCHAR

STARTCHAR M
ENCODING 77
SWIDTH 683 0
DWIDTH 17 0
BBX 14 18 2 0
BITMAP
E01C
E01C
F01C
F03C
D03C
D02C
D82C
D86C
C86C
CC4C
CCCC
CCCC
C48C
C68C
C78C
C78C
C30C
C30C
ENDCHAR

STARTCHAR N
ENCODING 78
SWIDTH 592 0
DWIDTH 15 0
BBX 12 18 1 0
BITMAP
C030
E030
E030
F030
D830
D830
DC30
CC30
C630
C630
C330
C3B0
C1B0
C1F0
C0F0
C070
C070
C030
ENDCHAR

STARTCHAR O
ENCODING 79
SWIDTH 638 0
DWIDTH 16 0
BBX 14 18 1 0
BITMAP
0FC0
1FE0
3870
7038
6018
E00C
C00C
C00C
C00C
C00C
C00C
C00C
601C
6018
7038
3870
1FE0
07C0
ENDCHAR

STARTCHAR P
ENCODING 80
SWIDTH 547 0
DWIDTH 14 0
BBX 11 18 2 0
BITMAP
FF80
FFC0
C0E0
C060
C060
C060
C060
C0E0
FFC0
FF80
C000
C000
C000
C000
C000
C000
C000
C000
ENDCHAR

STARTCHAR Q
ENCODING 81
SWIDTH 638 0
DWIDTH 16 0
BBX 14 19 1 -1
BITMAP
0FC0
1FE0
3870
7038
6018
E00C
C00C
C00C
C00C
C00C
C00C
C00C
601C
6198
71D8
3870
1FF8
079C
0004
ENDCHAR

STARTCHAR R
ENCODING 82
SWIDTH 592 0
DWIDTH 15 0
BBX 13 18 1 0
BITMAP
FFC0
FFE0
C070
C030
C030
C030
C030
C060
FFE0
FF00
C380
C1C0
C0C0
C0E0
C070
C030
C038
C018
ENDCHAR

STARTCHAR S
ENCODING 83
SWIDTH 547 0
DWIDTH 14 0
BBX 11 18 2 0
BITMAP
1F00
7F80
61C0
C0C0
C060
C000
E000
7800
3F80
0FC0
01C0
0060
8060
C060
C060
F1C0
7FC0
1F00
ENDCHAR

STARTCHAR T
ENCODING 84
SWIDTH 501 0
DWIDTH 13 0
BBX 12 18 0 0
BITMAP
FFF0
FFF0
0600
0600
0600
0600
0600
0600
0600
0600
0600
0600
0600
0600
0600
0600
0600
0600
ENDCHAR

STARTCHAR U
ENCODING 85
SWIDTH 592 0
DWIDTH 15 0
BBX 12 18 1 0
BITMAP
C030
C030
C030
C030
C030
C030
C030
C030
C030
C030
C030
C030
C030
C030
6060
70E0
3FC0
1F80
ENDCHAR

STARTCHAR V
ENCODING 86
SWIDTH 547 0
DWIDTH 14 0
BBX 14 18 0 0
BITMAP
C01C
6018
6018
6010
3030
3030
3020
3060
1860
1840
18C0
0CC0
0C80
0D80
0780
0780
0700
0300
ENDCHAR

STARTCHAR W
ENCODING 87
SWIDTH 774 0
DWIDTH 19 0
BBX 19 18 0 0
BITMAP
C0E060
C0E060
60E060
60B0C0
61B0C0
61B0C0
2190C0
311880
311980
331980
131980
130D80
1A0D00
1E0F00
1E0F00
0E0700
0C0600
0C0600
ENDCHAR

STARTCHAR X
ENCODING 88
SWIDTH 547 0
DWIDTH 14 0
BBX 14 18 0 0
BITMAP
6018
3030
3030
1860
1CE0
0CC0
0E80
0780
0300
0780
0680
0CC0
1CC0
1860
3070
7030
6038
E01C
ENDCHAR

STARTCHAR Y
ENCODING 89
SWIDTH 547 0
DWIDTH 14 0
BBX 14 18 0 0
BITMAP
E01C
6018
3038
3830
1860
1C60
0CC0
0EC0
0780
0300
0300
0300
0300
0300
0300
0300
0300
0300
ENDCHAR

STARTCHAR Z
ENCODING 90
SWIDTH 501 0
DWIDTH 13 0
BBX 12 18 0 0
BITMAP
7FF0
7FF0
0060
00E0
00C0
0180
0380
0300
0700
0E00
0C00
1C00
3800
3000
7000
6000
FFF0
FFF0
ENDCHAR

STARTCHAR bracketleft
ENCODING 91
SWIDTH 228 0
DWIDTH 6 0
BBX 4 23 1 -5
BITMAP
F0
F0
C0
C0
C0
C0
C0
C0
C0
C0
C0
C0
C0
C0
C0
C0
C0
C0
C0
C0
C0
F0
F0
ENDCHAR

STARTCHAR backslash
ENCODING 92
SWIDTH 228 0
DWIDTH 6 0
BBX 6 19 0 -1
BITMAP
C0
C0
40
40
40
60
60
20
20
30
30
10
10
18
18
08
08
08
0C
ENDCHAR

STARTCHAR bracketright
ENCODING 93
SWIDTH 228 0
DWIDTH 6 0
BBX 4 23 0 -5
BITMAP
F0
F0
30
30
30
30
30
30
30
30
30
30
30
30
30
30
30
30
30
30
30
F0
F0
ENDCHAR

STARTCHAR asciicircum
ENCODING 94
SWIDTH 385 0
DWIDTH 10 0
BBX 8 10 1 8
BITMAP
18
18
38
3C
2C
66
66
C6
C3
C3
ENDCHAR

STARTCHAR underscore
ENCODING 95
SWIDTH 456 0
DWIDTH 11 0
BBX 13 1 -1 -3
BITMAP
FFF8
ENDCHAR

STARTCHAR quoteleft
ENCODING 96
SWIDTH 182 0
DWIDTH 5 0
BBX 2 6 1 12
BITMAP
40
C0
80
C0
C0
C0
ENDCHAR

STARTCHAR a
ENCODING 97
SWIDTH 456 0
DWIDTH 11 0
BBX 10 13 1 0
BITMAP
1E00
7F00
6180
C180
0180
0780
7F80
E180
C180
C180
C380
7F80
38C0
ENDCHAR

STARTCHAR b
ENCODING 98
SWIDTH 456 0
DWIDTH 11 0
BBX 9 18 2 0
BITMAP
C000
C000
C000
C000
C000
DC00
DF00
E300
C180
C180
C180
C180
C180
C180
C100
E300
DE00
DC00
ENDCHAR

STARTCHAR c
ENCODING 99
SWIDTH 410 0
DWIDTH 10 0
BBX 9 13 1 0
BITMAP
1E00
3F00
6180
E180
C000
C000
C000
C000
C180
6180
6380
3F00
1E00
ENDCHAR

STARTCHAR d
ENCODING 100
SWIDTH 456 0
DWIDTH 11 0
BBX 9 18 1 0
BITMAP
0180
0180
0180
0180
0180
1D80
7F80
6380
C180
C180
C180
C180
C180
C180
6180
6380
3F80
1D80
ENDCHAR

STARTCHAR e
ENCODING 101
SWIDTH 456 0
DWIDTH 11 0
BBX 10 13 1 0
BITMAP
1E00
3F00
6180
40C0
C0C0
FFC0
FFC0
C000
C000
60C0
6180
3F80
1E00
ENDCHAR

STARTCHAR f
ENCODING 102
SWIDTH 228 0
DWIDTH 6 0
BBX 6 18 1 0
BITMAP
3C
7C
60
60
60
F8
F8
60
60
60
60
60
60
60
60
60
60
60
ENDCHAR

STARTCHAR g
ENCODING 103
SWIDTH 456 0
DWIDTH 11 0
BBX 10 18 0 -5
BITMAP
1EC0
3FC0
61C0
60C0
C0C0
C0C0
C0C0
C0C0
C0C0
61C0
61C0
3FC0
1CC0
00C0
C0C0
6180
7F00
1E00
ENDCHAR

STARTCHAR h
ENCODING 104
SWIDTH 456 0
DWIDTH 11 0
BBX 9 18 1 0
BITMAP
C000
C000
C000
C000
C000
DE00
DF00
E380
C180
C180
C180
C180
C180
C180
C180
C180
C180
C180
ENDCHAR

STARTCHAR i
ENCODING 105
SWIDTH 182 0
DWIDTH 5 0
BBX 2 18 1 0
BITMAP
C0
C0
C0
00
00
C0
C0
C0
C0
C0
C0
C0
C0
C0
C0
C0
C0
C0
ENDCHAR

STARTCHAR j
ENCODING 106
SWIDTH 182 0
DWIDTH 5 0
BBX 4 23 -1 -5
BITMAP
30
30
30
00
00
30
30
30
30
30
30
30
30
30
30
30
30
30
30
30
30
E0
E0
ENDCHAR

STARTCHAR k
ENCODING 107
SWIDTH 410 0
DWIDTH 10 0
BBX 9 18 1 0
BITMAP
C000
C000
C000
C000
C000
C380
C600
CE00
DC00
D000
F800
E800
CC00
CE00
C600
C700
C300
C180
ENDCHAR

STARTCHAR l
ENCODING 108
SWIDTH 182 0
DWIDTH 5 0
BBX 2 18 1 0
BITMAP
C0
C0
C0
C0
C0
C0
C0
C0
C0
C0
C0
C0
C0
C0
C0
C0
C0
C0
ENDCHAR

STARTCHAR m
ENCODING 109
SWIDTH 683 0
DWIDTH 17 0
BBX 14 13 2 0
BITMAP
DC70
DEF8
E38C
C30C
C30C
C30C
C30C
C30C
C30C
C30C
C30C
C30C
C30C
ENDCHAR

STARTCHAR n
ENCODING 110
SWIDTH 456 0
DWIDTH 11 0
BBX 9 13 1 0
BITMAP
DE00
DF00
E380
C180
C180
C180
C180
C180
C180
C180
C180
C180
C180
ENDCHAR

STARTCHAR o
ENCODING 111
SWIDTH 456 0
DWIDTH 11 0
BBX 10 13 1 0
BITMAP
1E00
3F00
6180
61C0
C0C0
C0C0
C0C0
C0C0
C0C0
6180
6180
3F00
1E00
ENDCHAR

STARTCHAR p
ENCODING 112
SWIDTH 456 0
DWIDTH 11 0
BBX 9 18 2 -5
BITMAP
CC00
DE00
E300
C180
C180
C180
C180
C180
C180
C100
E300
DE00
DC00
C000
C000
C000
C000
C000
ENDCHAR

STARTCHAR q
ENCODING 113
SWIDTH 456 0
DWIDTH 11 0
BBX 9 18 1 -5
BITMAP
1D80
3F80
6380
C180
C180
C180
C180
C180
C180
6180
6380
3F80
1D80
0180
0180
0180
0180
0180
ENDCHAR

STARTCHAR r
ENCODING 114
SWIDTH 273 0
DWIDTH 7 0
BBX 6 13 1 0
BITMAP
DC
DC
E4
C0
C0
C0
C0
C0
C0
C0
C0
C0
C0
ENDCHAR

STARTCHAR s
ENCODING 115
SWIDTH 410 0
DWIDTH 10 0
BBX 9 13 1 0
BITMAP
3C00
7F00
C300
C180
E000
7C00
3F00
0780
0180
C180
E380
7F00
3E00
ENDCHAR

STARTCHAR t
ENCODING 116
SWIDTH 228 0
DWIDTH 6 0
BBX 5 18 0 0
BITMAP
20
60
60
60
60
F8
F8
60
60
60
60
60
60
60
60
60
78
38
ENDCHAR

STARTCHAR u
ENCODING 117
SWIDTH 456 0
DWIDTH 11 0
BBX 9 13 1 0
BITMAP
C180
C180
C180
C180
C180
C180
C180
C180
C180
C180
E380
7F80
3D80
ENDCHAR

STARTCHAR v
ENCODING 118
SWIDTH 410 0
DWIDTH 10 0
BBX 10 13 0 0
BITMAP
C0C0
60C0
6180
6180
2180
3300
3300
1300
1A00
1E00
0E00
0C00
0C00
ENDCHAR

STARTCHAR w
ENCODING 119
SWIDTH 592 0
DWIDTH 15 0
BBX 15 13 0 0
BITMAP
C306
C384
638C
628C
628C
26C8
26D8
34D8
3458
1C50
1C70
1C70
1860
ENDCHAR

STARTCHAR x
ENCODING 120
SWIDTH 410 0
DWIDTH 10 0
BBX 10 13 0 0
BITMAP
E0C0
6180
3300
3B00
1E00
0E00
0C00
1E00
1B00
3300
7180
6180
C0C0
ENDCHAR

STARTCHAR y
ENCODING 121
SWIDTH 410 0
DWIDTH 10 0
BBX 10 18 0 -5
BITMAP
C0C0
60C0
6080
6180
3180
3100
3300
1B00
1A00
1E00
0E00
0E00
0C00
0C00
0C00
1800
7800
7000
ENDCHAR

STARTCHAR z
ENCODING 122
SWIDTH 410 0
DWIDTH 10 0
BBX 10 13 0 0
BITMAP
7FC0
7FC0
0180
0300
0600
0E00
0C00
1800
3800
3000
4000
FFC0
FFC0
ENDCHAR

STARTCHAR braceleft
ENCODING 123
SWIDTH 274 0
DWIDTH 7 0
BBX 6 23 1 -5
BITMAP
1C
1C
30
30
30
30
30
30
30
30
E0
C0
E0
30
30
30
30
30
30
30
30
1C
0C
ENDCHAR

STARTCHAR bar
ENCODING 124
SWIDTH 213 0
DWIDTH 5 0
BBX 2 24 2 -6
BITMAP
C0
C0
C0
C0
C0
C0
C0
C0
C0
C0
C0
C0
C0
C0
C0
C0
C0
C0
C0
C0
C0
C0
C0
C0
ENDCHAR

STARTCHAR braceright
ENCODING 125
SWIDTH 274 0
DWIDTH 7 0
BBX 6 23 0 -5
BITMAP
E0
E0
30
30
30
30
30
30
30
10
1C
0C
1C
10
30
30
30
30
30
30
30
E0
E0
ENDCHAR

STARTCHAR asciitilde
ENCODING 126
SWIDTH 479 0
DWIDTH 12 0
BBX 10 4 1 7
BITMAP
7840
FE40
9FC0
8780
ENDCHAR

STARTCHAR space
ENCODING 160
SWIDTH 228 0
DWIDTH 7 0
BBX 0 0 0 0
BITMAP
ENDCHAR

STARTCHAR exclamdown
ENCODING 161
SWIDTH 273 0
DWIDTH 7 0
BBX 2 18 2 -5
BITMAP
C0
C0
C0
00
C0
C0
C0
C0
C0
C0
C0
C0
C0
C0
C0
C0
C0
C0
ENDCHAR

STARTCHAR cent
ENCODING 162
SWIDTH 456 0
DWIDTH 11 0
BBX 9 23 1 -5
BITMAP
0100
0100
0300
0200
0200
1E00
3F00
6580
6580
C400
CC00
C800
C800
C880
7980
7380
3F00
1E00
3000
2000
2000
2000
2000
ENDCHAR

STARTCHAR sterling
ENCODING 163
SWIDTH 456 0
DWIDTH 11 0
BBX 10 18 1 0
BITMAP
0E00
3F80
3180
60C0
60C0
6000
6000
2000
FE00
FE00
3000
3000
3000
2000
4000
FC40
FFC0
83C0
ENDCHAR

STARTCHAR currency
ENCODING 164
SWIDTH 456 0
DWIDTH 11 0
BBX 10 12 1 3
BITMAP
8080
DDC0
FF80
6300
C180
C180
C180
C180
6300
FFC0
DD80
8080
ENDCHAR

STARTCHAR yen
ENCODING 165
SWIDTH 456 0
DWIDTH 11 0
BBX 12 18 0 0
BITMAP
C070
6060
6060
30C0
30C0
1980
1980
0F00
0F00
7FE0
7FE0
0600
7FE0
7FE0
0600
0600
0600
0600
ENDCHAR

STARTCHAR brokenbar
ENCODING 166
SWIDTH 213 0
DWIDTH 5 0
BBX 2 24 2 -6
BITMAP
C0
C0
C0
C0
C0
C0
C0
C0
C0
C0
00
00
00
00
C0
C0
C0
C0
C0
C0
C0
C0
C0
C0
ENDCHAR

STARTCHAR section
ENCODING 167
SWIDTH 456 0
DWIDTH 11 0
BBX 10 23 1 -5
BITMAP
1E00
3F00
6380
6180
6000
3000
3800
7C00
4F00
C380
C1C0
C0C0
70C0
38C0
1D80
0F00
0700
0380
6180
6180
7380
3F00
1E00
ENDCHAR

STARTCHAR dieresis
ENCODING 168
SWIDTH 273 0
DWIDTH 7 0
BBX 6 3 0 15
BITMAP
CC
CC
CC
ENDCHAR

STARTCHAR copyright
ENCODING 169
SWIDTH 604 0
DWIDTH 15 0
BBX 15 18 0 0
BITMAP
03C0
0FF0
3818
200C
63C4
C666
CC22
8802
8802
8802
8822
CC22
4666
63C4
300C
3838
0FF0
0380
ENDCHAR

STARTCHAR ordfeminine
ENCODING 170
SWIDTH 303 0
DWIDTH 8 0
BBX 7 9 1 9
BITMAP
7C
CC
44
3C
F4
C4
8C
FA
60
ENDCHAR

STARTCHAR guillemotleft
ENCODING 171
SWIDTH 456 0
DWIDTH 11 0
BBX 9 12 1 0
BITMAP
1980
1900
3300
3200
6600
CC00
6600
6600
3300
3300
1900
1980
ENDCHAR

STARTCHAR logicalnot
ENCODING 172
SWIDTH 479 0
DWIDTH 12 0
BBX 10 7 1 6
BITMAP
FFC0
FFC0
00C0
00C0
00C0
00C0
00C0
ENDCHAR

STARTCHAR hyphen
ENCODING 173
SWIDTH 273 0
DWIDTH 7 0
BBX 5 2 1 5
BITMAP
F8
F8
ENDCHAR

STARTCHAR registered
ENCODING 174
SWIDTH 604 0
DWIDTH 15 0
BBX 15 18 0 0
BITMAP
0780
1FF0
3018
600C
4F84
C8C6
8842
88C2
8F82
8982
8882
C8C6
4844
686C
2018
3830
0FE0
0380
ENDCHAR

STARTCHAR macron
ENCODING 175
SWIDTH 273 0
DWIDTH 7 0
BBX 7 2 0 15
BITMAP
FE
FE
ENDCHAR

STARTCHAR degree
ENCODING 176
SWIDTH 328 0
DWIDTH 8 0
BBX 5 6 2 12
BITMAP
70
D8
88
88
D8
70
ENDCHAR

STARTCHAR plusminus
ENCODING 177
SWIDTH 479 0
DWIDTH 12 0
BBX 10 15 1 0
BITMAP
0C00
0C00
0C00
0C00
0C00
FFC0
FFC0
0C00
0C00
0C00
0C00
0C00
0000
FFC0
FFC0
ENDCHAR

STARTCHAR twosuperior
ENCODING 178
SWIDTH 273 0
DWIDTH 7 0
BBX 6 9 1 9
BITMAP
78
CC
8C
0C
18
30
60
C0
FC
ENDCHAR

STARTCHAR threesuperior
ENCODING 179
SWIDTH 273 0
DWIDTH 7 0
BBX 6 9 1 9
BITMAP
78
CC
0C
10
38
0C
8C
CC
78
ENDCHAR

STARTCHAR acute
ENCODING 180
SWIDTH 273 0
DWIDTH 7 0
BBX 4 3 2 15
BITMAP
70
60
C0
ENDCHAR

STARTCHAR mu
ENCODING 181
SWIDTH 456 0
DWIDTH 11 0
BBX 9 18 1 -5
BITMAP
C180
C180
C180
C180
C180
C180
C180
C180
C180
C180
E380
DF80
DD80
C000
C000
C000
C000
C000
ENDCHAR

STARTCHAR paragraph
ENCODING 182
SWIDTH 440 0
DWIDTH 11 0
BBX 11 23 0 -5
BITMAP
3FE0
7FE0
7CC0
FCC0
FCC0
FCC0
FCC0
7CC0
7CC0
3CC0
0CC0
0CC0
0CC0
0CC0
0CC0
0CC0
0CC0
0CC0
0CC0
0CC0
0CC0
0CC0
0CC0
ENDCHAR

STARTCHAR periodcentered
ENCODING 183
SWIDTH 228 0
DWIDTH 6 0
BBX 2 3 2 7
BITMAP
C0
C0
C0
ENDCHAR

STARTCHAR cedilla
ENCODING 184
SWIDTH 273 0
DWIDTH 7 0
BBX 4 6 2 -5
BITMAP
40
40
60
30
F0
C0
ENDCHAR

STARTCHAR onesuperior
ENCODING 185
SWIDTH 273 0
DWIDTH 7 0
BBX 3 10 2 8
BITMAP
20
60
E0
A0
20
20
20
20
20
20
ENDCHAR

STARTCHAR ordmasculine
ENCODING 186
SWIDTH 299 0
DWIDTH 7 0
BBX 6 10 1 8
BITMAP
30
78
CC
84
84
84
84
CC
78
30
ENDCHAR

STARTCHAR guillemotright
ENCODING 187
SWIDTH 456 0
DWIDTH 11 0
BBX 9 12 1 0
BITMAP
CC00
6600
2600
3300
3300
1980
1980
3300
3300
6600
6600
CC00
ENDCHAR

STARTCHAR onequarter
ENCODING 188
SWIDTH 684 0
DWIDTH 17 0
BBX 15 19 2 -1
BITMAP
200C
6018
E010
A030
2060
2060
20C0
2080
2180
2100
0304
060C
041C
0C14
0834
1864
307E
2004
6004
ENDCHAR

STARTCHAR onehalf
ENCODING 189
SWIDTH 684 0
DWIDTH 17 0
BBX 15 20 2 -2
BITMAP
2018
6010
E030
A020
2060
2040
20C0
2180
2100
2300
023C
0666
0466
0C06
080C
1818
3030
2060
607E
4000
ENDCHAR

STARTCHAR threequarters
ENCODING 190
SWIDTH 684 0
DWIDTH 17 0
BBX 16 18 1 0
BITMAP
7806
CC0C
0C18
1010
3830
0C60
8C40
CCC0
7880
0182
0306
020E
061A
0412
0C22
183F
1002
3002
ENDCHAR

STARTCHAR questiondown
ENCODING 191
SWIDTH 501 0
DWIDTH 13 0
BBX 10 18 1 -5
BITMAP
0C00
0C00
0C00
0000
0C00
0C00
0C00
1C00
3800
7000
6000
C000
C000
C0C0
C180
6180
7F00
1E00
ENDCHAR

STARTCHAR Agrave
ENCODING 192
SWIDTH 547 0
DWIDTH 14 0
BBX 14 23 0 0
BITMAP
0E00
0600
0300
0300
0000
0300
0700
0780
0580
0D80
0CC0
0CC0
18C0
18E0
1860
3060
3FF0
3FF0
6030
6038
6018
C018
C01C
ENDCHAR

STARTCHAR Aacute
ENCODING 193
SWIDTH 547 0
DWIDTH 14 0
BBX 14 23 0 0
BITMAP
0180
0180
0300
0200
0000
0300
0700
0780
0580
0D80
0CC0
0CC0
18C0
18E0
1860
3060
3FF0
3FF0
6030
6038
6018
C018
C01C
ENDCHAR

STARTCHAR Acircumflex
ENCODING 194
SWIDTH 547 0
DWIDTH 14 0
BBX 14 23 0 0
BITMAP
0300
0700
0580
0CC0
0000
0300
0700
0780
0580
0D80
0CC0
0CC0
18C0
18E0
1860
3060
3FF0
3FF0
6030
6038
6018
C018
C01C
ENDCHAR

STARTCHAR Atilde
ENCODING 195
SWIDTH 547 0
DWIDTH 14 0
BBX 14 22 0 0
BITMAP
0640
0FC0
0980
0000
0300
0700
0780
0580
0D80
0CC0
0CC0
18C0
18E0
1860
3060
3FF0
3FF0
6030
6038
6018
C018
C01C
ENDCHAR

STARTCHAR Adieresis
ENCODING 196
SWIDTH 547 0
DWIDTH 14 0
BBX 14 23 0 0
BITMAP
0CC0
0CC0
0CC0
0000
0000
0300
0700
0780
0780
0D80
0CC0
0CC0
18C0
1860
1860
3070
3FF0
3FF0
6038
6018
6018
C01C
C00C
ENDCHAR

STARTCHAR Aring
ENCODING 197
SWIDTH 547 0
DWIDTH 14 0
BBX 14 23 0 0
BITMAP
0300
0480
0480
0300
0000
0300
0700
0780
0780
0D80
0CC0
0CC0
18C0
1860
1860
3060
3FF0
3FF0
7038
6018
6018
E01C
C00C
ENDCHAR

STARTCHAR AE
ENCODING 198
SWIDTH 820 0
DWIDTH 21 0
BBX 20 18 0 0
BITMAP
01FFE0
01FFE0
033000
033000
033000
063000
063000
0E3000
0C3FE0
0C3FE0
183000
1FF000
3FF000
303000
303000
603000
603FF0
E03FF0
ENDCHAR

STARTCHAR Ccedilla
ENCODING 199
SWIDTH 592 0
DWIDTH 15 0
BBX 13 23 1 -5
BITMAP
0FC0
1FE0
3870
7030
6018
E010
C000
C000
C000
C000
C000
C000
E018
6018
7030
3870
1FE0
0FC0
0200
0700
0180
0F80
0E00
ENDCHAR

STARTCHAR Egrave
ENCODING 200
SWIDTH 547 0
DWIDTH 14 0
BBX 11 23 2 0
BITMAP
1C00
0C00
0400
0600
0000
FFE0
FFE0
C000
C000
C000
C000
C000
C000
FFC0
FFC0
C000
C000
C000
C000
C000
C000
FFE0
FFE0
ENDCHAR

STARTCHAR Eacute
ENCODING 201
SWIDTH 547 0
DWIDTH 14 0
BBX 11 23 2 0
BITMAP
0700
0600
0600
0C00
0000
FFE0
FFE0
C000
C000
C000
C000
C000
C000
FFC0
FFC0
C000
C000
C000
C000
C000
C000
FFE0
FFE0
ENDCHAR

STARTCHAR Ecircumflex
ENCODING 202
SWIDTH 547 0
DWIDTH 14 0
BBX 11 23 2 0
BITMAP
0E00
0E00
1B00
3180
0000
FFE0
FFE0
C000
C000
C000
C000
C000
C000
FFC0
FFC0
C000
C000
C000
C000
C000
C000
FFE0
FFE0
ENDCHAR

STARTCHAR Edieresis
ENCODING 203
SWIDTH 547 0
DWIDTH 14 0
BBX 12 23 1 0
BITMAP
1980
1980
1980
0000
0000
FFE0
FFE0
C000
C000
C000
C000
C000
C000
FFE0
FFE0
C000
C000
C000
C000
C000
C000
FFF0
FFF0
ENDCHAR

STARTCHAR Igrave
ENCODING 204
SWIDTH 228 0
DWIDTH 6 0
BBX 3 23 1 0
BITMAP
C0
C0
60
20
00
60
60
60
60
60
60
60
60
60
60
60
60
60
60
60
60
60
60
ENDCHAR

STARTCHAR Iacute
ENCODING 205
SWIDTH 228 0
DWIDTH 6 0
BBX 4 23 2 0
BITMAP
70
60
C0
C0
00
C0
C0
C0
C0
C0
C0
C0
C0
C0
C0
C0
C0
C0
C0
C0
C0
C0
C0
ENDCHAR

STARTCHAR Icircumflex
ENCODING 206
SWIDTH 228 0
DWIDTH 6 0
BBX 6 23 0 0
BITMAP
30
78
68
CC
00
30
30
30
30
30
30
30
30
30
30
30
30
30
30
30
30
30
30
ENDCHAR

STARTCHAR Idieresis
ENCODING 207
SWIDTH 228 0
DWIDTH 6 0
BBX 6 23 0 0
BITMAP
CC
CC
CC
00
00
30
30
30
30
30
30
30
30
30
30
30
30
30
30
30
30
30
30
ENDCHAR

STARTCHAR Gbreve
ENCODING 208
SWIDTH 638 0
DWIDTH 16 0
BBX 14 22 1 0
BITMAP
0CC0
0780
0300
0000
07C0
1FF0
3838
7018
600C
E008
C000
C000
C000
C0FC
C0FC
C00C
E00C
600C
700C
383C
1FF8
07E0
ENDCHAR

STARTCHAR Ntilde
ENCODING 209
SWIDTH 592 0
DWIDTH 15 0
BBX 12 22 1 0
BITMAP
0C80
1F80
1300
0000
C030
E030
E030
F030
D830
D830
DC30
CC30
C630
C730
C330
C3B0
C1B0
C1F0
C0F0
C070
C070
C030
ENDCHAR

STARTCHAR Ograve
ENCODING 210
SWIDTH 638 0
DWIDTH 16 0
BBX 14 23 1 0
BITMAP
0600
0600
0300
0100
0000
0FC0
1FE0
3870
7038
6018
E00C
C00C
C00C
C00C
C00C
C00C
C00C
E01C
6018
7038
3870
1FE0
07C0
ENDCHAR

STARTCHAR Oacute
ENCODING 211
SWIDTH 638 0
DWIDTH 16 0
BBX 14 23 1 0
BITMAP
01C0
0180
0300
0300
0000
0FC0
1FE0
3870
7038
6018
E00C
C00C
C00C
C00C
C00C
C00C
C00C
E01C
6018
7038
3870
1FE0
07C0
ENDCHAR

STARTCHAR Ocircumflex
ENCODING 212
SWIDTH 638 0
DWIDTH 16 0
BBX 14 23 1 0
BITMAP
0300
0780
0680
0CC0
0000
0FC0
1FE0
3870
7038
6018
E00C
C00C
C00C
C00C
C00C
C00C
C00C
E01C
6018
7038
3870
1FE0
07C0
ENDCHAR

STARTCHAR Otilde
ENCODING 213
SWIDTH 638 0
DWIDTH 16 0
BBX 14 22 1 0
BITMAP
0640
0FC0
0980
0000
0FC0
1FE0
3870
7038
6018
E00C
C00C
C00C
C00C
C00C
C00C
C00C
E01C
6018
7038
3870
1FE0
07C0
ENDCHAR

STARTCHAR Odieresis
ENCODING 214
SWIDTH 638 0
DWIDTH 16 0
BBX 14 23 1 0
BITMAP
0CC0
0CC0
0CC0
0000
0000
0FC0
1FE0
3870
7038
6018
C00C
C00C
C00C
C00C
C00C
C00C
C00C
E00C
6018
7038
3870
1FE0
07C0
ENDCHAR

STARTCHAR multiply
ENCODING 215
SWIDTH 479 0
DWIDTH 12 0
BBX 8 10 2 4
BITMAP
81
C3
66
76
18
3C
3C
66
C3
C3
ENDCHAR

STARTCHAR Oslash
ENCODING 216
SWIDTH 638 0
DWIDTH 16 0
BBX 14 18 1 0
BITMAP
0FC4
1FEC
3870
7038
6038
E06C
C0CC
C18C
C10C
C30C
C60C
CC0C
781C
7818
3038
7870
5FE0
CFC0
ENDCHAR

STARTCHAR Ugrave
ENCODING 217
SWIDTH 592 0
DWIDTH 15 0
BBX 12 23 1 0
BITMAP
1C00
0C00
0600
0200
0000
C030
C030
C030
C030
C030
C030
C030
C030
C030
C030
C030
C030
C030
C030
6060
70E0
3FC0
1F80
ENDCHAR

STARTCHAR Uacute
ENCODING 218
SWIDTH 592 0
DWIDTH 15 0
BBX 12 23 1 0
BITMAP
0380
0300
0600
0600
0000
C030
C030
C030
C030
C030
C030
C030
C030
C030
C030
C030
C030
C030
C030
6060
70E0
3FC0
1F80
ENDCHAR

STARTCHAR Ucircumflex
ENCODING 219
SWIDTH 592 0
DWIDTH 15 0
BBX 12 23 1 0
BITMAP
0600
0F00
0D00
1980
0000
C030
C030
C030
C030
C030
C030
C030
C030
C030
C030
C030
C030
C030
C030
6060
70E0
3FC0
1F80
ENDCHAR

STARTCHAR Udieresis
ENCODING 220
SWIDTH 592 0
DWIDTH 15 0
BBX 12 23 1 0
BITMAP
1980
1980
1980
0000
0000
C030
C030
C030
C030
C030
C030
C030
C030
C030
C030
C030
C030
C030
C030
6060
70E0
3FC0
1F80
ENDCHAR

STARTCHAR Idotaccent
ENCODING 221
SWIDTH 228 0
DWIDTH 6 0
BBX 2 22 2 0
BITMAP
C0
C0
C0
00
C0
C0
C0
C0
C0
C0
C0
C0
C0
C0
C0
C0
C0
C0
C0
C0
C0
C0
ENDCHAR

STARTCHAR Scedilla
ENCODING 222
SWIDTH 547 0
DWIDTH 14 0
BBX 11 23 2 -5
BITMAP
3F00
7F80
61C0
C0C0
C0E0
C000
E000
7800
3F00
0FC0
01C0
00E0
8060
C060
C060
E1C0
7FC0
3F00
0800
0C00
0600
1E00
1800
ENDCHAR

STARTCHAR germandbls
ENCODING 223
SWIDTH 501 0
DWIDTH 13 0
BBX 10 18 2 0
BITMAP
3C00
7E00
6300
C300
C300
C600
C600
CC00
CC00
CE00
C700
C380
C1C0
C0C0
C8C0
D8C0
CF80
C700
ENDCHAR

STARTCHAR agrave
ENCODING 224
SWIDTH 456 0
DWIDTH 11 0
BBX 10 18 1 0
BITMAP
3800
1800
0800
0C00
0000
1E00
7F00
6180
C180
0180
0F80
7F80
E180
C180
C180
C380
7F80
38C0
ENDCHAR

STARTCHAR aacute
ENCODING 225
SWIDTH 456 0
DWIDTH 11 0
BBX 10 18 1 0
BITMAP
0600
0C00
0C00
0800
0000
1E00
7F00
6180
C180
0180
0F80
7F80
E180
C180
C180
C380
7F80
38C0
ENDCHAR

STARTCHAR acircumflex
ENCODING 226
SWIDTH 456 0
DWIDTH 11 0
BBX 10 18 1 0
BITMAP
0C00
1C00
3600
3300
0000
1E00
7F00
6180
C180
0180
0F80
7F80
E180
C180
C180
C380
7F80
38C0
ENDCHAR

STARTCHAR atilde
ENCODING 227
SWIDTH 456 0
DWIDTH 11 0
BBX 10 18 1 0
BITMAP
1900
3F00
2600
0000
0000
1E00
7F00
6180
C180
0180
0F80
7F80
E180
C180
C180
C380
7F80
38C0
ENDCHAR

STARTCHAR adieresis
ENCODING 228
SWIDTH 456 0
DWIDTH 11 0
BBX 10 18 1 0
BITMAP
3300
3300
3300
0000
0000
3E00
7F00
6180
C180
0180
0780
7F80
E180
C180
C180
C280
7F80
3CC0
ENDCHAR

STARTCHAR aring
ENCODING 229
SWIDTH 456 0
DWIDTH 11 0
BBX 10 19 1 0
BITMAP
0C00
1200
1200
1200
0C00
0000
3F00
7F00
6180
C180
0180
0780
7F80
E180
C180
C180
C380
7F80
3CC0
ENDCHAR

STARTCHAR ae
ENCODING 230
SWIDTH 729 0
DWIDTH 18 0
BBX 17 13 1 0
BITMAP
1E3C00
7FBE00
61C300
C1C180
018180
1FFF80
7EFF80
E18000
C18100
C1C180
E3C300
7E7E00
3C3C00
ENDCHAR

STARTCHAR ccedilla
ENCODING 231
SWIDTH 410 0
DWIDTH 10 0
BBX 10 17 1 -4
BITMAP
1E00
3F00
6180
6180
C000
C000
C000
C000
C0C0
6180
6180
3F00
0C00
0C00
0600
0600
1C00
ENDCHAR

STARTCHAR egrave
ENCODING 232
SWIDTH 456 0
DWIDTH 11 0
BBX 10 18 1 0
BITMAP
3800
1800
0C00
0400
0000
1E00
3F00
6180
60C0
C0C0
FFC0
FFC0
C000
C000
60C0
6180
3F80
1E00
ENDCHAR

STARTCHAR eacute
ENCODING 233
SWIDTH 456 0
DWIDTH 11 0
BBX 10 18 1 0
BITMAP
0700
0600
0C00
0800
0000
1E00
3F00
6180
60C0
C0C0
FFC0
FFC0
C000
C000
60C0
6180
3F80
1E00
ENDCHAR

STARTCHAR ecircumflex
ENCODING 234
SWIDTH 456 0
DWIDTH 11 0
BBX 10 18 1 0
BITMAP
0C00
1E00
1A00
3300
0000
1E00
3F00
6180
60C0
C0C0
FFC0
FFC0
C000
C000
60C0
6180
3F80
1E00
ENDCHAR

STARTCHAR edieresis
ENCODING 235
SWIDTH 456 0
DWIDTH 11 0
BBX 10 18 1 0
BITMAP
3300
3300
3300
0000
0000
1E00
3F00
6180
40C0
C0C0
FFC0
FFC0
C000
C000
60C0
6180
3F80
1E00
ENDCHAR

STARTCHAR igrave
ENCODING 236
SWIDTH 228 0
DWIDTH 6 0
BBX 3 18 1 0
BITMAP
C0
C0
60
20
00
60
60
60
60
60
60
60
60
60
60
60
60
60
ENDCHAR

STARTCHAR iacute
ENCODING 237
SWIDTH 228 0
DWIDTH 6 0
BBX 4 18 2 0
BITMAP
70
60
C0
80
00
C0
C0
C0
C0
C0
C0
C0
C0
C0
C0
C0
C0
C0
ENDCHAR

STARTCHAR icircumflex
ENCODING 238
SWIDTH 228 0
DWIDTH 6 0
BBX 6 18 0 0
BITMAP
30
78
E8
CC
00
30
30
30
30
30
30
30
30
30
30
30
30
30
ENDCHAR

STARTCHAR idieresis
ENCODING 239
SWIDTH 228 0
DWIDTH 6 0
BBX 6 18 0 0
BITMAP
CC
CC
CC
00
00
30
30
30
30
30
30
30
30
30
30
30
30
30
ENDCHAR

STARTCHAR gbreve
ENCODING 240
SWIDTH 456 0
DWIDTH 11 0
BBX 10 22 0 -5
BITMAP
3300
1F00
0C00
0000
1EC0
3FC0
61C0
60C0
C0C0
C0C0
C0C0
C0C0
C0C0
61C0
61C0
3FC0
1CC0
00C0
C0C0
6180
7F00
1E00
ENDCHAR

STARTCHAR ntilde
ENCODING 241
SWIDTH 456 0
DWIDTH 11 0
BBX 9 18 1 0
BITMAP
3300
7F00
6600
0000
0000
DE00
DF00
E380
C180
C180
C180
C180
C180
C180
C180
C180
C180
C180
ENDCHAR

STARTCHAR ograve
ENCODING 242
SWIDTH 456 0
DWIDTH 11 0
BBX 10 18 1 0
BITMAP
1800
1800
0C00
0400
0000
1E00
3F00
6180
61C0
C0C0
C0C0
C0C0
C0C0
C0C0
6180
6180
3F00
1E00
ENDCHAR

STARTCHAR oacute
ENCODING 243
SWIDTH 456 0
DWIDTH 11 0
BBX 10 18 1 0
BITMAP
0600
0600
0C00
0800
0000
1E00
3F00
6180
61C0
C0C0
C0C0
C0C0
C0C0
C0C0
6180
6180
3F00
1E00
ENDCHAR

STARTCHAR ocircumflex
ENCODING 244
SWIDTH 456 0
DWIDTH 11 0
BBX 10 18 1 0
BITMAP
0C00
1E00
1A00
3300
0000
1E00
3F00
6180
61C0
C0C0
C0C0
C0C0
C0C0
C0C0
6180
6180
3F00
1E00
ENDCHAR

STARTCHAR otilde
ENCODING 245
SWIDTH 456 0
DWIDTH 11 0
BBX 10 18 1 0
BITMAP
1900
3F00
2600
0000
0000
1E00
3F00
6180
61C0
C0C0
C0C0
C0C0
C0C0
C0C0
6180
6180
3F00
1E00
ENDCHAR

STARTCHAR odieresis
ENCODING 246
SWIDTH 456 0
DWIDTH 11 0
BBX 10 18 1 0
BITMAP
3300
3300
3300
0000
0000
1E00
3F00
6180
C0C0
C0C0
C0C0
C0C0
C0C0
C0C0
6080
6180
3F00
1E00
ENDCHAR

STARTCHAR divide
ENCODING 247
SWIDTH 479 0
DWIDTH 12 0
BBX 10 10 1 4
BITMAP
0C00
0C00
0C00
0000
FFC0
FFC0
0000
0C00
0C00
0C00
ENDCHAR

STARTCHAR oslash
ENCODING 248
SWIDTH 501 0
DWIDTH 13 0
BBX 10 14 1 -1
BITMAP
1EC0
3F80
6180
63C0
C2C0
C4C0
CCC0
C8C0
D0C0
F1C0
6180
7F00
DE00
4000
ENDCHAR

STARTCHAR ugrave
ENCODING 249
SWIDTH 456 0
DWIDTH 11 0
BBX 9 18 1 0
BITMAP
3800
1800
0800
0C00
0000
C180
C180
C180
C180
C180
C180
C180
C180
C180
C180
E380
7F80
3D80
ENDCHAR

STARTCHAR uacute
ENCODING 250
SWIDTH 456 0
DWIDTH 11 0
BBX 9 18 1 0
BITMAP
0E00
0C00
0C00
1800
0000
C180
C180
C180
C180
C180
C180
C180
C180
C180
C180
E380
7F80
3D80
ENDCHAR

STARTCHAR ucircumflex
ENCODING 251
SWIDTH 456 0
DWIDTH 11 0
BBX 9 18 1 0
BITMAP
1C00
1C00
3600
6300
0000
C180
C180
C180
C180
C180
C180
C180
C180
C180
C180
E380
7F80
3D80
ENDCHAR

STARTCHAR udieresis
ENCODING 252
SWIDTH 456 0
DWIDTH 11 0
BBX 9 18 1 0
BITMAP
6600
6600
6600
0000
0000
C180
C180
C180
C180
C180
C180
C180
C180
C180
C180
E380
7F80
3D80
ENDCHAR

STARTCHAR dotlessi
ENCODING 253
SWIDTH 228 0
DWIDTH 6 0
BBX 2 13 2 0
BITMAP
C0
C0
C0
C0
C0
C0
C0
C0
C0
C0
C0
C0
C0
ENDCHAR

STARTCHAR scedilla
ENCODING 254
SWIDTH 410 0
DWIDTH 10 0
BBX 9 18 1 -5
BITMAP
3E00
7F00
C300
C180
E000
7C00
3F00
0780
0180
C180
E180
7F00
3E00
0800
1C00
0600
3E00
3800
ENDCHAR

STARTCHAR ydieresis
ENCODING 255
SWIDTH 410 0
DWIDTH 10 0
BBX 10 23 0 -5
BITMAP
3300
3300
3300
0000
0000
C0C0
C0C0
6180
6180
6180
3100
3300
3300
1A00
1E00
1E00
0C00
0C00
0C00
0800
1800
7800
7000
ENDCHAR
ENDFONT
